<svg xmlns="http://www.w3.org/2000/svg" id="Layer_1" data-name="Layer 1" viewBox="0 0 1480 885.85"><defs><style>.cls-1{fill:#36393a}.cls-2{fill:#404242}.cls-3{fill:#ceeaee}.cls-4{fill:#2b4b4b}</style></defs><path d="M268.92,169.18H265L254.83,153v16.14h-4V146.43h4L265,162.63v-16.2h3.92Z" class="cls-1"/><path d="M280.67,169.49a7.86,7.86,0,0,1-5.85-2.27,8.25,8.25,0,0,1-2.24-6.06v-.47a10.17,10.17,0,0,1,1-4.52,7.41,7.41,0,0,1,2.75-3.1,7.22,7.22,0,0,1,3.93-1.11,6.63,6.63,0,0,1,5.34,2.2,9.36,9.36,0,0,1,1.88,6.24v1.53h-11a5.09,5.09,0,0,0,1.39,3.31,4.22,4.22,0,0,0,3.09,1.22,5.13,5.13,0,0,0,4.25-2.11l2.05,2a6.9,6.9,0,0,1-2.71,2.36A8.63,8.63,0,0,1,280.67,169.49ZM280.22,155a3.21,3.21,0,0,0-2.53,1.09,5.64,5.64,0,0,0-1.22,3.05h7.23v-.28a4.66,4.66,0,0,0-1-2.89A3.19,3.19,0,0,0,280.22,155Z" class="cls-1"/><path d="M295.16,148.16v4.11h3v2.82h-3v9.43a2,2,0,0,0,.38,1.4,1.76,1.76,0,0,0,1.37.43,5.48,5.48,0,0,0,1.32-.16v2.94a9.27,9.27,0,0,1-2.5.36q-4.37,0-4.37-4.83v-9.57h-2.78v-2.82h2.78v-4.11Z" class="cls-1"/><path d="M315.89,163.94l2.69-11.67h3.7l-4.61,16.91h-3.12l-3.63-11.61-3.56,11.61h-3.13l-4.62-16.91h3.7l2.74,11.55,3.46-11.55h2.86Z" class="cls-1"/><path d="M324.11,160.57a10.06,10.06,0,0,1,1-4.48,7.23,7.23,0,0,1,2.77-3.06A7.82,7.82,0,0,1,332,152a7.4,7.4,0,0,1,5.56,2.2,8.66,8.66,0,0,1,2.3,5.85l0,.89a10.12,10.12,0,0,1-1,4.47,7.12,7.12,0,0,1-2.75,3,7.86,7.86,0,0,1-4.14,1.08,7.32,7.32,0,0,1-5.72-2.38,9.1,9.1,0,0,1-2.15-6.35Zm3.8.33A6.77,6.77,0,0,0,329,165a3.77,3.77,0,0,0,6,0,7.54,7.54,0,0,0,1.07-4.39,6.68,6.68,0,0,0-1.11-4.06,3.71,3.71,0,0,0-5.94,0A7.41,7.41,0,0,0,327.91,160.9Z" class="cls-1"/><path d="M351.89,155.74a9.83,9.83,0,0,0-1.55-.12,3.46,3.46,0,0,0-3.51,2v11.56H343V152.27h3.63l.09,1.89a4.28,4.28,0,0,1,3.81-2.2,3.53,3.53,0,0,1,1.35.22Z" class="cls-1"/><path d="M359.78,161.93l-1.69,1.73v5.52H354.3v-24h3.79V159l1.19-1.48,4.67-5.27h4.56l-6.28,7,7,9.86H364.8Z" class="cls-1"/><path d="M308.45,503.76A24.21,24.21,0,1,0,332.66,528a24.21,24.21,0,0,0-24.21-24.21M198,461.34a30.56,30.56,0,0,1-4.56,8.55l86.13,47.19a31,31,0,0,1,4.79-8.42L198,461.34m221.45-.66-87.11,47.73a30.6,30.6,0,0,1,4.87,8.38l86.62-47.47a30.85,30.85,0,0,1-4.38-8.64M168.82,427.09A24.21,24.21,0,1,0,193,451.3a24.21,24.21,0,0,0-24.22-24.21m280.06,0a24.21,24.21,0,1,0,24.21,24.21,24.21,24.21,0,0,0-24.21-24.21M301.45,399.84v98.07a31,31,0,0,1,7-.82c.91,0,1.8.06,2.69.13V400.53c-.89.08-1.78.14-2.69.14a30.48,30.48,0,0,1-7-.83M441.88,378.6v42.64a31,31,0,0,1,7-.83c.91,0,1.8.06,2.69.14V378.7c-1.34.07-2.68.1-4,.1-1.89,0-3.77-.07-5.66-.2m-133.43-33a24.22,24.22,0,1,0,24.21,24.21,24.21,24.21,0,0,0-24.21-24.21M174.74,326.64a30.4,30.4,0,0,1-5.92.58,31,31,0,0,1-3.76-.25v93.7a29.18,29.18,0,0,1,9.68.32V326.64m-5.92-54.51A24.21,24.21,0,1,0,193,296.34a24.21,24.21,0,0,0-24.22-24.21m132.63-22.4v90a31,31,0,0,1,7-.82c.91,0,1.8.06,2.69.13V250.42c-.89.07-1.78.13-2.69.13a31,31,0,0,1-7-.82m-13.05-6.6-51.69,85.4-38.9-21.61a30.77,30.77,0,0,1-4.71,8.47l38.59,21.43L215.25,364l-26.5-44.06a31,31,0,0,1-8.28,5l29.11,48.41-29.73,49.13a30.85,30.85,0,0,1,8.4,4.82l27-44.57L231.61,410l-39,21.64a30.76,30.76,0,0,1,4.91,8.36l39.07-21.7,51.84,86.19a31.06,31.06,0,0,1,8.27-5l-51.63-85.84,40.86-22.69a30.83,30.83,0,0,1-5.46-8.05l-40.4,22.43-19.19-31.9,19.28-31.84,38.23,21.23a30.47,30.47,0,0,1,3.7-9l-36.91-20.5,51.46-85a30.89,30.89,0,0,1-8.25-5.08m40.5-.36a31.14,31.14,0,0,1-8.16,5.23l50.72,84.32-37.14,20.62a30.78,30.78,0,0,1,3.94,8.89l38.19-21.2,19.18,31.89-20,33.11-39.58-22a31.25,31.25,0,0,1-5.68,7.92l40.24,22.34L319.07,499a31.09,31.09,0,0,1,8.47,4.72L379,418.63l40.67,22.58a30.68,30.68,0,0,1,4.58-8.54l-40.23-22.34,17.21-28.43,27.61,45.89a30.59,30.59,0,0,1,8.26-5.05l-30.2-50.21L409.1,369a79.89,79.89,0,0,1-40.8-60.69l-39.4-65.51m8.53-12.51a30.86,30.86,0,0,1-4.71,8.46l43.8,24c.31-.6.63-1.2,1-1.8q1.83-3.37,4-6.54l-44-24.12M279.38,230,193.11,277.3a30.83,30.83,0,0,1,4.7,8.46L284,238.52a30.63,30.63,0,0,1-4.64-8.5m29.07-34.56a24.21,24.21,0,1,0,24.21,24.21,24.21,24.21,0,0,0-24.21-24.21" class="cls-2"/><path d="M448.88,320.55a24.21,24.21,0,1,1,24.21-24.21,24.21,24.21,0,0,1-24.21,24.21m-1.43-101.23a79.74,79.74,0,0,0-66,35.06l42.76,23.43a30.82,30.82,0,0,0-4.54,8.56l-43.15-23.65a79.62,79.62,0,0,0-8.22,45.56l11.63,19.34,39.51-21.94a30.75,30.75,0,0,0,4.37,8.65l-38.89,21.6,16.38,27.22L428,319.05a31.21,31.21,0,0,0,8.07,5.37L409.1,369a80,80,0,0,0,32.78,9.63V326.4a31,31,0,0,0,7,.82c.91,0,1.8-.05,2.69-.13V378.7a79.74,79.74,0,0,0-4.12-159.38" class="cls-3"/><path d="M441.88,326.4v52.2c1.89.13,3.77.2,5.66.2,1.35,0,2.69,0,4-.1V327.09c-.89.08-1.78.13-2.69.13a31,31,0,0,1-7-.82m-22.44-20.72-39.51,21.94L368.3,308.28A79.89,79.89,0,0,0,409.1,369l27-44.55a31.21,31.21,0,0,1-8.07-5.37l-26.69,44.1-16.38-27.22,38.89-21.6a30.75,30.75,0,0,1-4.37-8.65m29.44-33.55a24.21,24.21,0,1,0,24.21,24.21,24.21,24.21,0,0,0-24.21-24.21m-67.43-17.75q-2.15,3.17-4,6.54c-.32.6-.64,1.2-1,1.8l43.15,23.65a30.82,30.82,0,0,1,4.54-8.56l-42.76-23.43" class="cls-4"/><path d="M916.58,698.18l-501.21-335-14.21,5.16L923.93,717.8l-.12.06,147.62-527L443,213.42l9.59,12.07L1055,203.76,916.53,698.14" class="cls-2"/><path d="M853.06,304.91c94.14-121.31,268.8-143.34,390.11-49.19s143.34,268.8,49.19,390.11S1023.56,789.17,902.25,695a278,278,0,0,1-49.19-390.11Z" class="cls-3"/><path d="M1286.81,642.12c-92,118.55-262.7,140-381.25,48s-140-262.7-48-381.25,262.71-140,381.25-48a271.71,271.71,0,0,1,48,381.25h0m9.74,7.57c96.25-123.79,73.93-302.17-49.87-398.42s-302.17-73.93-398.42,49.86S774.33,603.3,898.12,699.56a283.94,283.94,0,0,0,398.43-49.87Z" class="cls-2"/><path d="M518.48,351.58,508.75,344h0a73.56,73.56,0,1,1,12.66-25.07A73.54,73.54,0,0,1,508.75,344l9.73,7.57m0,0a85.83,85.83,0,1,0-91.21,29.88A85.84,85.84,0,0,0,518.48,351.58Z" class="cls-2"/><path d="M1175.44,492.42a16.8,16.8,0,1,1-16.79,16.8A16.8,16.8,0,0,1,1175.44,492.42Zm16.8-90.69a16.8,16.8,0,1,0-16.8,16.79A16.8,16.8,0,0,0,1192.24,401.73ZM964.38,509.22a16.8,16.8,0,1,0,16.8-16.8A16.8,16.8,0,0,0,964.38,509.22ZM998,401.73a16.8,16.8,0,1,0-16.79,16.79A16.8,16.8,0,0,0,998,401.73ZM1078,469.47a16.8,16.8,0,1,0-16.8-16.8A16.8,16.8,0,0,0,1078,469.47Zm16.79-120.93a16.8,16.8,0,1,0-16.79,16.8A16.79,16.79,0,0,0,1094.82,348.54ZM1078,431.25c.63,0,1.25,0,1.86.09V369.87c-.61.05-1.23.09-1.86.09a21.53,21.53,0,0,1-4.85-.57v62.43A21.53,21.53,0,0,1,1078,431.25Zm80.35,65-27.9-15.49,11.94-19.73,19.15,31.84a21.53,21.53,0,0,1,5.73-3.51l-21-34.82,20.2-33.38a21.6,21.6,0,0,1-5.6-3.72l-18.51,30.59-11.36-18.88,27-15a21.44,21.44,0,0,1-3-6l-27.41,15.21-35.4-58.85a21.18,21.18,0,0,1-5.66,3.62l35.19,58.5L1096,441a21,21,0,0,1,2.74,6.17l26.49-14.71,13.3,22.12-13.9,23-27.45-15.24a21.7,21.7,0,0,1-3.94,5.49l27.91,15.5-35.72,59a21.36,21.36,0,0,1,5.87,3.27l35.73-59,28.21,15.67A21.41,21.41,0,0,1,1158.38,496.29ZM998,414.94l26.77,14.86-11.41,18.85L995,418.08a21.29,21.29,0,0,1-5.75,3.48l20.2,33.58-20.63,34.08a21.48,21.48,0,0,1,5.83,3.35l18.71-30.92,11.37,18.9-27.05,15a21.19,21.19,0,0,1,3.41,5.79l27.1-15,36,59.78a21.39,21.39,0,0,1,5.73-3.5L1034.07,483l28.34-15.73a21.42,21.42,0,0,1-3.78-5.59l-28,15.56-13.31-22.13,13.36-22.08,26.52,14.72a21.69,21.69,0,0,1,2.57-6.26l-25.6-14.21,35.69-59a21.66,21.66,0,0,1-5.72-3.52l-35.85,59.23-27-15A21.33,21.33,0,0,1,998,414.94Zm3.26-20.55,59.81-32.77a21.12,21.12,0,0,1-3.22-5.9L998,388.52A21.18,21.18,0,0,1,1001.28,394.39ZM1078,474.1a21.53,21.53,0,0,1-4.85-.58v68A21.53,21.53,0,0,1,1078,541c.63,0,1.25,0,1.86.09V474C1079.28,474.05,1078.66,474.1,1078,474.1Zm77.15-79.29a21.55,21.55,0,0,1,3.15-5.94l-60.2-33a21.47,21.47,0,0,1-3.26,5.87ZM1001.42,516.18a21.15,21.15,0,0,1-3.17,5.93L1058,554.85a21.19,21.19,0,0,1,3.32-5.84Zm-20.24-93a20.58,20.58,0,0,1-2.62-.18v65a20.58,20.58,0,0,1,2.62-.18,22.18,22.18,0,0,1,4.1.4V422.75A21.35,21.35,0,0,1,981.18,423.15Zm194.26,0a21.53,21.53,0,0,1-4.85-.57v65.78a21.53,21.53,0,0,1,4.85-.57c.63,0,1.25,0,1.87.1V423.06C1176.69,423.11,1176.07,423.15,1175.44,423.15ZM1094.6,548.83a21.2,21.2,0,0,1,3.38,5.81l60.09-32.92a21.07,21.07,0,0,1-3-6Zm-33.37,13.57a16.8,16.8,0,1,0,16.8-16.79A16.8,16.8,0,0,0,1061.23,562.4Z" class="cls-2"/><path d="M1039.24,632.7a2.75,2.75,0,0,0-1.06-2.31,12.64,12.64,0,0,0-3.8-1.64,18,18,0,0,1-4.38-1.85,5.84,5.84,0,0,1-3.11-5.09,5.56,5.56,0,0,1,2.24-4.53,9.09,9.09,0,0,1,5.83-1.78,9.87,9.87,0,0,1,4.23.87,7.05,7.05,0,0,1,2.92,2.49,6.4,6.4,0,0,1,1.06,3.59h-3.93a3.58,3.58,0,0,0-1.12-2.79,4.63,4.63,0,0,0-3.2-1,4.8,4.8,0,0,0-3,.83,2.73,2.73,0,0,0-1.07,2.31,2.49,2.49,0,0,0,1.15,2.09,13.32,13.32,0,0,0,3.81,1.63,17.39,17.39,0,0,1,4.27,1.79,6.88,6.88,0,0,1,2.36,2.31,6,6,0,0,1,.75,3.06,5.41,5.41,0,0,1-2.18,4.52,9.45,9.45,0,0,1-5.91,1.68,11.09,11.09,0,0,1-4.54-.91,7.56,7.56,0,0,1-3.22-2.53,6.25,6.25,0,0,1-1.15-3.75h4a3.67,3.67,0,0,0,1.28,3,5.63,5.63,0,0,0,3.68,1.07,4.88,4.88,0,0,0,3.1-.84A2.7,2.7,0,0,0,1039.24,632.7Z" class="cls-1"/><path d="M1056.53,636.9a5.86,5.86,0,0,1-4.75,2,5.22,5.22,0,0,1-4.16-1.61,6.84,6.84,0,0,1-1.41-4.65v-11H1050v10.91c0,2.15.89,3.22,2.67,3.22a3.75,3.75,0,0,0,3.74-2V621.65h3.8v16.91h-3.58Z" class="cls-1"/><path d="M1078.91,630.28a10.16,10.16,0,0,1-1.76,6.26,5.7,5.7,0,0,1-4.84,2.33,5.49,5.49,0,0,1-4.62-2.14l-.19,1.83h-3.44v-24h3.8v8.72a5.51,5.51,0,0,1,4.42-1.94,5.79,5.79,0,0,1,4.86,2.3,10.3,10.3,0,0,1,1.77,6.42Zm-3.8-.33a7.12,7.12,0,0,0-1-4.12,3.21,3.21,0,0,0-2.81-1.38,3.53,3.53,0,0,0-3.47,2.16v7a3.58,3.58,0,0,0,3.5,2.2,3.19,3.19,0,0,0,2.75-1.33,6.9,6.9,0,0,0,1-4Z" class="cls-1"/><path d="M1085.61,621.65l.11,2a6.08,6.08,0,0,1,4.92-2.27c3.52,0,5.32,2,5.38,6v11.17h-3.8V627.61a3.52,3.52,0,0,0-.69-2.39,3,3,0,0,0-2.28-.77,3.65,3.65,0,0,0-3.42,2.08v12H1082V621.65Z" class="cls-1"/><path d="M1107.33,638.87a7.86,7.86,0,0,1-5.85-2.27,8.23,8.23,0,0,1-2.24-6.06v-.46a10.18,10.18,0,0,1,1-4.53,7.41,7.41,0,0,1,2.75-3.1,7.2,7.2,0,0,1,3.93-1.11,6.68,6.68,0,0,1,5.34,2.2,9.36,9.36,0,0,1,1.88,6.24v1.53h-11a5.07,5.07,0,0,0,1.4,3.31,4.22,4.22,0,0,0,3.09,1.22,5.13,5.13,0,0,0,4.25-2.11l2,1.95a6.85,6.85,0,0,1-2.72,2.36A8.55,8.55,0,0,1,1107.33,638.87Zm-.45-14.48a3.19,3.19,0,0,0-2.53,1.09,5.64,5.64,0,0,0-1.22,3h7.23v-.28a4.66,4.66,0,0,0-1-2.89A3.19,3.19,0,0,0,1106.88,624.39Z" class="cls-1"/><path d="M1121.81,617.54v4.11h3v2.82h-3v9.43a2,2,0,0,0,.39,1.4,1.74,1.74,0,0,0,1.36.43,6.1,6.1,0,0,0,1.33-.15v2.93a9.32,9.32,0,0,1-2.5.36q-4.37,0-4.37-4.83v-9.57h-2.78v-2.82H1118v-4.11Z" class="cls-1"/></svg>